inDegrees=no
num_controls=7
num_derivatives=13
num_iterations=88
num_multipliers=7
num_parameters=0
num_slacks=7
num_states=26
objective=0.520045
objective_accelerations=0.006773
objective_balance=0.002467
objective_effort=0.008946
objective_height=0.416271
objective_ligament=0.085589
solver_duration=1259.063283
status=Solve_Succeeded
success=true
DataType=double
version=3
OpenSimVersion=4.5
endheader
time	/jointset/ground_pelvis/pelvis_tilt/value	/jointset/ground_pelvis/pelvis_tx/value	/jointset/ground_pelvis/pelvis_ty/value	/jointset/hip_l/hip_flexion_l/value	/jointset/hip_l/hip_adduction_l/value	/jointset/hip_l/hip_rotation_l/value	/jointset/back/lumbar_extension/value	/jointset/patellofemoral_l/patellar_flexion_l/value	/jointset/knee_l/knee_flexion_l/value	/jointset/knee_l/knee_adduction_l/value	/jointset/knee_l/knee_rotation_l/value	/jointset/ankle_l/ankle_angle_l/value	/jointset/subtalar_l/subtalar_angle_l/value	/jointset/ground_pelvis/pelvis_tilt/speed	/jointset/ground_pelvis/pelvis_tx/speed	/jointset/ground_pelvis/pelvis_ty/speed	/jointset/hip_l/hip_flexion_l/speed	/jointset/hip_l/hip_adduction_l/speed	/jointset/hip_l/hip_rotation_l/speed	/jointset/back/lumbar_extension/speed	/jointset/patellofemoral_l/patellar_flexion_l/speed	/jointset/knee_l/knee_flexion_l/speed	/jointset/knee_l/knee_adduction_l/speed	/jointset/knee_l/knee_rotation_l/speed	/jointset/ankle_l/ankle_angle_l/speed	/jointset/subtalar_l/subtalar_angle_l/speed	/forceset/tau_hip_flexion_l	/forceset/tau_hip_adduction_l	/forceset/tau_hip_rotation_l	/forceset/tau_knee_flexion_l	/forceset/tau_ankle_angle_l	/forceset/tau_subtalar_angle_l	/forceset/tau_lumbar_extension	lambda_cid13_p0	lambda_cid13_p1	lambda_cid13_p2	lambda_cid13_p3	lambda_cid13_p4	lambda_cid13_p5	lambda_cid14_p0	/jointset/ground_pelvis/pelvis_tilt/accel	/jointset/ground_pelvis/pelvis_tx/accel	/jointset/ground_pelvis/pelvis_ty/accel	/jointset/hip_l/hip_flexion_l/accel	/jointset/hip_l/hip_adduction_l/accel	/jointset/hip_l/hip_rotation_l/accel	/jointset/back/lumbar_extension/accel	/jointset/patellofemoral_l/patellar_flexion_l/accel	/jointset/knee_l/knee_flexion_l/accel	/jointset/knee_l/knee_adduction_l/accel	/jointset/knee_l/knee_rotation_l/accel	/jointset/ankle_l/ankle_angle_l/accel	/jointset/subtalar_l/subtalar_angle_l/accel	gamma_cid13_p0	gamma_cid13_p1	gamma_cid13_p2	gamma_cid13_p3	gamma_cid13_p4	gamma_cid13_p5	gamma_cid14_p0
0	-0.003339736562970449	0.04092378402641918	0.9246928461513472	0.3085816938045678	-0.2381662200525421	-0.3281960053991294	-0.3879492264334186	0.249926942118479	0.2499269421184919	-0.05321042200400487	-0.1744983577388223	-0.0008036623358878681	0.06077077156124873	0	0	0	0	0	0	0	0	0	0	0	0	0	-0.02359692633791239	0.07256792404119962	-0.008681692266347546	-0.1966229749354079	0.2096453057917633	-0.08327743965819356	0.1115344360287868	15.86120127878322	31.34131161254744	-3.110634285591369	-5.102652705721876	-702.6106842934408	-6.153220286346232	-22.81751635294143	0.1627481896891582	-0.007293040569403122	0.0292828277850272	-0.2583251629173129	0.09493645146940766	-0.1042221263532478	-0.6611310389170176	-0.1904656828214911	-0.190465682821533	0.1363263260551198	-0.01643355094224409	-0.05473461738137581	0.07998067756950386	-7.374821361356737e-09	-2.564147906025563e-08	1.34275007061404e-08	4.322765669285836e-09	-3.98137680918482e-08	-3.720146059775463e-08	-1.918491203767379e-09
0.01	-0.003336149075000935	0.04092868119310548	0.9246946497065102	0.3085663108556825	-0.2381617196265028	-0.3282015761155841	-0.3879805325684454	0.2499162075863351	0.2499162075863927	-0.05320439776136197	-0.1744987253749756	-0.0008006330093257973	0.06077676376343254	0.0002828169313182157	0.001506655446308463	0.000398272919509172	-0.003361323662184801	0.0008781586301331391	-0.001170084641386923	-0.006110749670589607	-0.002292063681342955	-0.002292063681343189	0.001124519587578928	-4.113395537842402e-05	0.001175386455600693	0.001398138362644195	0.006673983477163438	0.01988561642638711	-0.008540592057329882	-0.2573516017868112	0.2878362742617158	-0.06638915475144623	0.09383169561412	41.937872828381	21.40029067696814	-3.763866841768166	-27.95502563340536	-705.1863175422408	-32.04972168903769	-22.8173425708763	-0.1041530912601355	0.30872901777441	0.05072584430393375	-0.4177462173683524	0.08096573082948036	-0.1317954824655206	-0.5634753307907422	-0.2703499149431161	-0.2703499149434732	0.08846411565056284	0.006908206501279169	0.2891021824883127	0.1996876955641604	-2.284956366804e-09	-7.255967278309061e-09	3.873520329359225e-09	1.484228207353475e-09	-1.17013140036429e-08	-1.009279965249231e-08	-6.193636425397449e-10
0.02	-0.003342773724926083	0.04096446175036014	0.9247015612549204	0.3085087726201228	-0.2381490955817432	-0.3282205264483256	-0.388068431880129	0.2498781977765343	0.2498781977765397	-0.05318953845470843	-0.1744985320457634	-0.0007687644371039309	0.06080272880523279	-0.002042427581840692	0.006176678113673331	0.001021598649465182	-0.008431057304405255	0.001624723742079739	-0.002675923260150702	-0.01131863532753068	-0.005455055528804017	-0.005455055528804272	0.001767012796796716	0.0001121930627103173	0.00576784912949722	0.003994567923375048	0.03694489329112851	-0.03279669118856131	-0.008399491848436937	-0.3180802286387502	0.3660272427314946	-0.04950086984490733	0.0761289551987841	68.01354469701431	11.46053394346891	-4.418544911256295	-50.82358951093178	-707.786008016113	-57.9497159049663	-22.81673562993067	-0.3588640992062015	0.6253804036417413	0.07429338987438672	-0.6000071589243694	0.06861774783211409	-0.1713729218286416	-0.480558236187369	-0.3646513160451692	-0.3646513160451688	0.03992105038289805	0.02245864375116714	0.6286806262775917	0.3196389171867735	2.804908627748737e-09	1.112954450363751e-08	-5.680460047421953e-09	-1.354309254578886e-09	1.641114008456239e-08	1.701586129277001e-08	6.797639186878895e-10
0.03	-0.00338070601817454	0.04105615158220186	0.9247152954676531	0.308396207782636	-0.2381294782965988	-0.3282555584008957	-0.3882062958671813	0.2498062690329868	0.249806269033039	-0.05316974135054223	-0.1744963825509112	-0.0006809919670110914	0.06085806745081684	-0.005476321370661747	0.01202848676375047	0.001709793617435712	-0.01395616284935267	0.002289798878333365	-0.004308881653475458	-0.01634752766380353	-0.008875216483023076	-0.008875216483023807	0.002188872982711155	0.0003056797496762446	0.01164243236359192	0.007007450510485856	0.03128710494208641	0.001025828948342342	-0.008708780535400867	-0.3056990403674549	0.3581830315790284	-0.07497096246304667	0.07915210428969138	64.15748837593124	22.6069142380859	-5.521148690183988	-45.85318191153166	-706.8650321200122	-33.29949456588213	-22.81557888932555	-0.3254957913610336	0.5451605892422262	0.06376840411157468	-0.5099000731383101	0.06411278108121346	-0.1560183337336915	-0.5280595693381129	-0.3223771219576894	-0.322377121958207	0.042788759818612	0.01598867358055252	0.5452157993267623	0.2822551562700821	1.114989487490188e-09	4.582206884211747e-09	-2.696668638395838e-09	-2.547261515656312e-10	6.89128566500049e-09	7.446127887818664e-09	3.073552955206069e-10
0.04	-0.003450946003818241	0.04120237539925123	0.924735448800835	0.308232164325452	-0.2381034781831753	-0.328306272144517	-0.3883972497450091	0.2497018029525346	0.2497018029525356	-0.0531458315930438	-0.1744926591906466	-0.0005387999391034276	0.06094156336763036	-0.008503966065082995	0.01708347515520333	0.002305422739330888	-0.01872678122870214	0.002901289396958728	-0.005812281472777654	-0.02193661347962951	-0.01196252291115707	-0.01196252291115833	0.002589543453549718	0.0004269661330798449	0.01665176069172432	0.009626022169467294	0.02562931659241728	0.03484834908523845	-0.009018069222602577	-0.2933178520964678	0.3503388204264806	-0.100441055081222	0.08217525338018537	60.29954298706492	33.75694942673007	-6.628132082294314	-40.91114098424721	-705.975324741555	-8.647202257879989	-22.81388504579938	-0.2776142803261312	0.4660163519167079	0.0557802206593083	-0.4491097258047047	0.05790082430649755	-0.145461207024023	-0.5925969320980271	-0.2980804108282246	-0.2980804108282362	0.03568310736775225	0.008018583038814624	0.4556296450848838	0.2407767315608406	-7.147190163727216e-10	-2.479210104314486e-09	5.45633529100531e-10	9.260553136114521e-10	-3.404492641319511e-09	-2.879861070745345e-09	-9.951799124244785e-11
0.05	-0.003549918536139776	0.04139667445364568	0.9247612974626811	0.3080223699950462	-0.2380715370200121	-0.3283716673555861	-0.3886450475295267	0.2495673872972635	0.2495673872973168	-0.05311803316323831	-0.1744879693251535	-0.0003492222659760056	0.06105000857132776	-0.01127398076833585	0.02179413698287916	0.002868648206235413	-0.02327920212743574	0.003494891251633145	-0.007275754245509534	-0.02752909493555055	-0.01493408495773552	-0.01493408495773591	0.002983116220716202	0.0005119322159773904	0.02128543760696751	0.01208028737581742	0.02397942714665627	0.0197798485606038	-0.008806650477505383	-0.2910967306076773	0.3418707891400793	-0.08486507455647434	0.08356437324413298	58.38929884825103	27.41088047183587	-5.712468380151502	-40.71391265109189	-706.2769756074856	-21.93836005965741	-22.81170820365169	-0.2742109681215817	0.4762614811972941	0.05724373203470063	-0.4653757918159799	0.06128213028068107	-0.1481395171934264	-0.5284964790870254	-0.298715601313811	-0.2987156013141988	0.04314016489141325	0.008874559498856122	0.4704861076176613	0.2503421083189585	8.168729506330124e-11	1.3531248517506e-09	-1.214783651700484e-09	5.748784494714041e-10	1.849331904187281e-09	2.575719853104827e-09	1.125923074417695e-10
